<svg width="32" height="33" viewBox="0 0 32 33" fill="none" xmlns="http://www.w3.org/2000/svg">
<path d="M28.3427 15.116C28.9747 15.9426 28.9747 17.0586 28.3427 17.884C26.3521 20.4826 21.5761 25.8333 16.0001 25.8333C10.4241 25.8333 5.64806 20.4826 3.65739 17.884C3.3499 17.4881 3.18298 17.0012 3.18298 16.5C3.18298 15.9987 3.3499 15.5118 3.65739 15.116C5.64806 12.5173 10.4241 7.16663 16.0001 7.16663C21.5761 7.16663 26.3521 12.5173 28.3427 15.116V15.116Z" stroke="black" stroke-width="2" stroke-linecap="round" stroke-linejoin="round"/>
<path d="M16 20.5C18.2091 20.5 20 18.7091 20 16.5C20 14.2909 18.2091 12.5 16 12.5C13.7909 12.5 12 14.2909 12 16.5C12 18.7091 13.7909 20.5 16 20.5Z" stroke="black" stroke-width="2" stroke-linecap="round" stroke-linejoin="round"/>
</svg>
